<?xml version="1.0" encoding="utf-8"?>
<svg xmlns="http://www.w3.org/2000/svg" height="48px" viewBox="0 -960 960 960" width="48px" fill="#000">
  <path d="M 248 -300 C 283.713 -300 318.473 -295.833 352.28 -287.5 C 386.093 -279.167 419.333 -266.667 452 -250 L 452 -677 C 422 -697 389.46 -712.5 354.38 -723.5 C 319.3 -734.5 283.84 -740 248 -740 C 222.667 -740 197.833 -736.833 173.5 -730.5 C 149.167 -724.167 124.667 -716.333 100 -707 L 100 -273 C 120.667 -282.333 144.167 -289.167 170.5 -293.5 C 196.833 -297.833 222.667 -300 248 -300 Z M 512 -250 C 545.333 -266.667 578 -279.167 610 -287.5 C 642 -295.833 676 -300 712 -300 C 737.333 -300 763.5 -298 790.5 -294 C 817.5 -290 840.667 -284.667 860 -278 L 860 -707 C 837.333 -718.333 813.393 -726.667 788.18 -732 C 762.967 -737.333 737.573 -740 712 -740 C 676 -740 641.167 -734.5 607.5 -723.5 C 573.833 -712.5 542 -697 512 -677 L 512 -250 Z M 482 -160 C 448 -185.333 411 -204.833 371 -218.5 C 331 -232.167 290 -239 248 -239 C 223.64 -239 199.717 -236 176.23 -230 C 152.743 -224 129.333 -216.667 106 -208 C 90.6 -200.667 75.75 -201.667 61.45 -211 C 47.15 -220.333 40 -233.667 40 -251 L 40 -714 C 40 -724 42.333 -733.167 47 -741.5 C 51.667 -749.833 58.667 -756.333 68 -761 C 96 -774.333 125.13 -784.167 155.39 -790.5 C 185.657 -796.833 216.527 -800 248 -800 C 290 -800 330.833 -794.333 370.5 -783 C 410.167 -771.667 447.333 -754.333 482 -731 C 516 -754.333 552.5 -771.667 591.5 -783 C 630.5 -794.333 670.667 -800 712 -800 C 743.247 -800 773.89 -796.833 803.93 -790.5 C 833.977 -784.167 863 -774.333 891 -761 C 900.333 -756.333 907.5 -749.833 912.5 -741.5 C 917.5 -733.167 920 -724 920 -714 L 920 -251 C 920 -232.407 912.5 -218.257 897.5 -208.55 C 882.5 -198.85 867.667 -198.667 853 -208 C 830.333 -217.333 807.257 -224.833 783.77 -230.5 C 760.283 -236.167 736.36 -239 712 -239 C 670 -239 629.667 -232 591 -218 C 552.333 -204 516 -184.667 482 -160 Z M 276 -495 Z"/>
  <text style="font-family: WarSoPaohFont; font-size: 300px; white-space: pre;" x="145.376" y="-459.14">က</text>
  <text style="font-family: WarSoPaohFont; font-size: 300px; white-space: pre;" x="658.24" y="-459.01">ၒ</text>
</svg>